<?xml version="1.0" encoding="utf-8"?>
<!-- Generator: Adobe Illustrator 16.0.0, SVG Export Plug-In . SVG Version: 6.00 Build 0)  -->
<!DOCTYPE svg PUBLIC "-//W3C//DTD SVG 1.1//EN" "http://www.w3.org/Graphics/SVG/1.1/DTD/svg11.dtd">
<svg version="1.1" id="Layer_1" xmlns="http://www.w3.org/2000/svg" xmlns:xlink="http://www.w3.org/1999/xlink" x="0px" y="0px"
	 width="70px" height="20.416px" viewBox="0 0 100 20.416" enable-background="new 0 0 100 20.416" xml:space="preserve">
<g>
	<path fill="#FFFFFF" d="M5.218,15.967l-1.864,4.231H0l8.198-18.6h3.354l8.198,18.6h-3.354l-1.864-4.231H5.218z M13.252,13.062
		l-3.381-7.66l-3.381,7.66H13.252z"/>
	<path fill="#FFFFFF" d="M31.587,13.702V6.041h2.979v14.157h-2.979V17.62c-0.477,0.871-1.143,1.551-1.98,2.048
		c-0.844,0.497-1.755,0.748-2.728,0.748c-1.599,0-2.892-0.489-3.871-1.463c-0.986-0.973-1.477-2.388-1.477-4.23V6.041h2.98v7.77
		c0,2.605,1.082,3.911,3.245,3.911c1.027,0,1.925-0.34,2.688-1.026C31.206,16.015,31.587,15.015,31.587,13.702z"/>
	<path fill="#FFFFFF" d="M39.969,18.39c-1.333-1.348-1.994-3.124-1.994-5.321s0.68-3.959,2.048-5.266
		c1.368-1.313,2.994-1.966,4.885-1.966s3.408,0.796,4.565,2.395V0.456h2.98v19.743h-2.98v-2.129c-1.109,1.558-2.714,2.34-4.824,2.34
		C42.86,20.409,41.295,19.736,39.969,18.39z M40.955,13.185c0,1.36,0.436,2.463,1.306,3.313c0.871,0.85,1.891,1.278,3.062,1.278
		c1.17,0,2.163-0.429,2.98-1.292c0.816-0.864,1.224-1.966,1.224-3.314c0-1.347-0.408-2.476-1.224-3.38
		c-0.817-0.905-1.816-1.361-3.007-1.361c-1.19,0-2.211,0.456-3.061,1.361C41.377,10.694,40.955,11.831,40.955,13.185z"/>
	<path fill="#FFFFFF" d="M56.943,3.218c-0.375-0.374-0.558-0.816-0.558-1.333c0-0.517,0.183-0.959,0.558-1.333
		C57.317,0.184,57.758,0,58.276,0c0.517,0,0.959,0.184,1.333,0.558c0.374,0.375,0.558,0.816,0.558,1.334
		c0,0.517-0.184,0.959-0.558,1.333c-0.375,0.374-0.816,0.558-1.333,0.558C57.758,3.775,57.317,3.592,56.943,3.218z M59.738,20.198
		h-2.979V6.041h2.979V20.198z"/>
	<path fill="#FFFFFF" d="M67.719,8.436v7.184c0,0.674,0.177,1.211,0.53,1.612c0.354,0.401,0.851,0.599,1.49,0.599
		s1.252-0.312,1.837-0.932l1.225,2.102c-1.048,0.939-2.204,1.408-3.47,1.408c-1.272,0-2.354-0.442-3.245-1.319
		c-0.898-0.878-1.347-2.062-1.347-3.552V8.436h-1.783V6.041h1.783V1.599h2.979v4.442h3.729v2.395H67.719z"/>
	<path fill="#FFFFFF" d="M86.904,18.294c-1.423,1.408-3.191,2.115-5.32,2.115c-2.13,0-3.905-0.707-5.32-2.115
		c-1.422-1.408-2.13-3.136-2.13-5.177s0.708-3.769,2.13-5.177c1.415-1.408,3.19-2.116,5.32-2.116c2.129,0,3.905,0.708,5.32,2.116
		c1.421,1.408,2.129,3.136,2.129,5.177S88.325,16.886,86.904,18.294z M78.379,16.456c0.844,0.865,1.912,1.293,3.205,1.293
		c1.292,0,2.36-0.428,3.204-1.293c0.844-0.856,1.266-1.972,1.266-3.339c0-1.368-0.422-2.476-1.266-3.34
		c-0.844-0.857-1.912-1.293-3.204-1.293c-1.293,0-2.367,0.429-3.205,1.293c-0.844,0.864-1.265,1.972-1.265,3.34
		C77.114,14.484,77.535,15.6,78.379,16.456z"/>
	<path fill="#FFFFFF" d="M99.837,8.831c-1.47,0-2.579,0.476-3.327,1.436c-0.741,0.959-1.116,2.245-1.116,3.857v6.068h-2.979V6.041
		h2.979v2.844c0.477-0.884,1.13-1.612,1.96-2.184c0.823-0.564,1.701-0.864,2.619-0.877L100,8.831
		C99.945,8.831,99.891,8.831,99.837,8.831z"/>
</g>
</svg>
